<svg width="50" height="40" viewBox="0 0 50 40" fill="none" xmlns="http://www.w3.org/2000/svg">
<g clip-path="url(#clip0_41_29)">
<path d="M0 6.4C0 4.15979 0 3.03968 0.435974 2.18404C0.819467 1.43139 1.43139 0.819467 2.18404 0.435974C3.03968 0 4.15979 0 6.4 0H30C41.0457 0 50 8.95431 50 20V20C50 31.0457 41.0457 40 30 40H6.4C4.15979 40 3.03968 40 2.18404 39.564C1.43139 39.1805 0.819467 38.5686 0.435974 37.816C0 36.9603 0 35.8402 0 33.6V6.4Z" fill="#CCC2DC"/>
<path opacity="0.5" d="M23.2189 14.5806C23.1937 14.5806 23.1559 14.5806 23.1433 14.6058L23.1181 14.6688L27.3571 30.5526C29.4085 29.6688 31.1422 28.1815 32.3278 26.2884L23.2946 14.6184C23.2855 14.607 23.274 14.5977 23.2609 14.5912C23.2479 14.5846 23.2335 14.5811 23.2189 14.5806Z" fill="url(#paint0_linear_41_29)"/>
<path d="M22.9609 9.44777C20.9994 9.45456 19.0754 9.98578 17.3883 10.9864C15.7011 11.987 14.3123 13.4205 13.3657 15.1385C12.419 16.8565 11.949 18.7964 12.0044 20.7571C12.0597 22.7179 12.6384 24.6281 13.6805 26.29L22.8521 14.4317C22.8807 14.3973 22.938 14.3744 23.001 14.3744C23.064 14.3744 23.1156 14.3973 23.15 14.4317L32.3158 26.29C33.4152 24.5392 33.9989 22.5141 34 20.4468C34 14.3744 29.0734 9.44777 23.001 9.44777C22.9876 9.44775 22.9743 9.44775 22.9609 9.44777Z" fill="#332D41"/>
</g>
<defs>
<linearGradient id="paint0_linear_41_29" x1="23.2189" y1="14.5806" x2="30.2839" y2="28.698" gradientUnits="userSpaceOnUse">
<stop stop-color="#4A4458" stop-opacity="0.08"/>
<stop offset="0.5" stop-color="#4A4458"/>
<stop offset="1" stop-color="#4A4458"/>
</linearGradient>
<clipPath id="clip0_41_29">
<path d="M0 6.4C0 4.15979 0 3.03968 0.435974 2.18404C0.819467 1.43139 1.43139 0.819467 2.18404 0.435974C3.03968 0 4.15979 0 6.4 0H30C41.0457 0 50 8.95431 50 20V20C50 31.0457 41.0457 40 30 40H6.4C4.15979 40 3.03968 40 2.18404 39.564C1.43139 39.1805 0.819467 38.5686 0.435974 37.816C0 36.9603 0 35.8402 0 33.6V6.4Z" fill="white"/>
</clipPath>
</defs>
</svg>
