<svg width="50" height="40" viewBox="0 0 50 40" fill="none" xmlns="http://www.w3.org/2000/svg">
<g clip-path="url(#clip0_32_2)">
<path d="M0 20C0 8.95431 8.95431 0 20 0H43.6C45.8402 0 46.9603 0 47.816 0.435974C48.5686 0.819467 49.1805 1.43139 49.564 2.18404C50 3.03968 50 4.15979 50 6.4V33.6C50 35.8402 50 36.9603 49.564 37.816C49.1805 38.5686 48.5686 39.1805 47.816 39.564C46.9603 40 45.8402 40 43.6 40H20C8.9543 40 0 31.0457 0 20V20Z" fill="#CCC2DC"/>
<path d="M19.3639 12.9111C20.788 12.2448 22.3107 11.7606 23.9027 11.4849C24.0982 11.8383 24.3266 12.3138 24.4841 12.692C26.1764 12.4375 27.8531 12.4375 29.5143 12.692C29.6717 12.3138 29.9053 11.8383 30.1026 11.4849C31.6963 11.7606 33.2207 12.2466 34.6448 12.9147C37.5172 17.2553 38.2959 21.4881 37.9066 25.6607C36.0014 27.0835 34.1551 27.9477 32.34 28.5133C31.8918 27.8964 31.4921 27.2408 31.1478 26.5497C31.8036 26.3005 32.4317 25.993 33.0252 25.636C32.8677 25.5194 32.7137 25.3974 32.5649 25.2719C28.945 26.9651 25.0118 26.9651 21.4352 25.2719C21.2846 25.3974 21.1306 25.5194 20.9749 25.636C21.5701 25.9948 22.2 26.3023 22.8558 26.5515C22.5115 27.2408 22.1135 27.8982 21.6636 28.515C19.8467 27.9495 17.9986 27.0852 16.0935 25.6607C15.6367 20.8235 16.8739 16.6296 19.3639 12.9111ZM30.6546 23.0946C31.7413 23.0946 32.6324 22.0801 32.6324 20.8447C32.6324 19.6094 31.7603 18.5931 30.6546 18.5931C29.5489 18.5931 28.6577 19.6076 28.6768 20.8447C28.675 22.0801 29.5489 23.0946 30.6546 23.0946ZM23.3455 23.0946C24.4322 23.0946 25.3233 22.0801 25.3233 20.8447C25.3233 19.6094 24.4512 18.5931 23.3455 18.5931C22.2398 18.5931 21.3486 19.6076 21.3677 20.8447C21.3677 22.0801 22.2398 23.0946 23.3455 23.0946Z" fill="#332D41"/>
</g>
<defs>
<clipPath id="clip0_32_2">
<path d="M0 20C0 8.95431 8.95431 0 20 0H43.6C45.8402 0 46.9603 0 47.816 0.435974C48.5686 0.819467 49.1805 1.43139 49.564 2.18404C50 3.03968 50 4.15979 50 6.4V33.6C50 35.8402 50 36.9603 49.564 37.816C49.1805 38.5686 48.5686 39.1805 47.816 39.564C46.9603 40 45.8402 40 43.6 40H20C8.9543 40 0 31.0457 0 20V20Z" fill="white"/>
</clipPath>
</defs>
</svg>
