<svg width="44" height="40" viewBox="0 0 44 40" fill="none" xmlns="http://www.w3.org/2000/svg">
<g clip-path="url(#clip0_41_2)">
<rect width="44" height="40" rx="4" fill="#CCC2DC"/>
<path d="M14 10C14.5523 10 15 10.4477 15 11C15 11.5523 14.5523 12 14 12V28C14.5523 28 15 28.4477 15 29C15 29.5523 14.5523 30 14 30H13C12.4477 30 12 29.5523 12 29V11C12 10.4477 12.4477 10 13 10H14Z" fill="#332D41"/>
<path d="M31 10C31.5523 10 32 10.4477 32 11V29C32 29.5523 31.5523 30 31 30H30C29.4477 30 29 29.5523 29 29C29 28.4477 29.4477 28 30 28V12C29.4477 12 29 11.5523 29 11C29 10.4477 29.4477 10 30 10H31Z" fill="#332D41"/>
<path d="M16 23V17C16 16.4477 16.4477 16 17 16C17.5523 16 18 16.4477 18 17V23C18 23.5523 17.5523 24 17 24C16.4477 24 16 23.5523 16 23Z" fill="#332D41"/>
<path d="M21 23V19.5C21 19.1022 20.8419 18.7208 20.5605 18.4395C20.2792 18.1581 19.8978 18 19.5 18C19.1022 18 18.7208 18.1581 18.4395 18.4395C18.1581 18.7208 18 19.1022 18 19.5V20C18 20.5523 17.5523 21 17 21C16.4477 21 16 20.5523 16 20V19.5C16 18.5717 16.369 17.6818 17.0254 17.0254C17.6818 16.369 18.5717 16 19.5 16C20.4283 16 21.3182 16.369 21.9746 17.0254C22.631 17.6818 23 18.5717 23 19.5V23C23 23.5523 22.5523 24 22 24C21.4477 24 21 23.5523 21 23Z" fill="#332D41"/>
<path d="M26 23V19.5C26 19.1022 25.8419 18.7208 25.5605 18.4395C25.2792 18.1581 24.8978 18 24.5 18C24.1022 18 23.7208 18.1581 23.4395 18.4395C23.1581 18.7208 23 19.1022 23 19.5V20C23 20.5523 22.5523 21 22 21C21.4477 21 21 20.5523 21 20V19.5C21 18.5717 21.369 17.6818 22.0254 17.0254C22.6818 16.369 23.5717 16 24.5 16C25.4283 16 26.3182 16.369 26.9746 17.0254C27.631 17.6818 28 18.5717 28 19.5V23C28 23.5523 27.5523 24 27 24C26.4477 24 26 23.5523 26 23Z" fill="#332D41"/>
</g>
<defs>
<clipPath id="clip0_41_2">
<rect width="44" height="40" rx="4" fill="white"/>
</clipPath>
</defs>
</svg>
