<svg width="47" height="40" viewBox="0 0 47 40" fill="none" xmlns="http://www.w3.org/2000/svg">
<g clip-path="url(#clip0_42_44)">
<rect width="46.1" height="40" rx="4" fill="#CCC2DC"/>
<path d="M22.9 30L27.45 18H29.55L34.1 30H32L30.925 26.95H26.075L25 30H22.9ZM15 27L13.6 25.6L18.65 20.55C18.0667 19.9667 17.5375 19.3 17.0625 18.55C16.5875 17.8 16.15 16.95 15.75 16H17.85C18.1833 16.65 18.5167 17.2167 18.85 17.7C19.1833 18.1833 19.5833 18.6667 20.05 19.15C20.6 18.6 21.1708 17.8292 21.7625 16.8375C22.3542 15.8458 22.8 14.9 23.1 14H12V12H19V10H21V12H28V14H25.1C24.75 15.2 24.225 16.4333 23.525 17.7C22.825 18.9667 22.1333 19.9333 21.45 20.6L23.85 23.05L23.1 25.1L20.05 21.975L15 27ZM26.7 25.2H30.3L28.5 20.1L26.7 25.2Z" fill="#332D41"/>
</g>
<defs>
<clipPath id="clip0_42_44">
<rect width="46.1" height="40" rx="4" fill="white"/>
</clipPath>
</defs>
</svg>
